<svg width="80" height="80" viewBox="0 0 80 80" fill="none" xmlns="http://www.w3.org/2000/svg">
<rect width="80" height="80" fill="white"/>
<path d="M7.83199 31.3358H9.24098V35.6636C9.24098 36.1495 9.12492 36.5747 8.8928 36.9392C8.66285 37.3036 8.3407 37.5878 7.92635 37.7917C7.51201 37.9935 7.02933 38.0944 6.47831 38.0944C5.92513 38.0944 5.44137 37.9935 5.02702 37.7917C4.61268 37.5878 4.29053 37.3036 4.06058 36.9392C3.83063 36.5747 3.71565 36.1495 3.71565 35.6636V31.3358H5.12464V35.5432C5.12464 35.797 5.17996 36.0226 5.2906 36.2201C5.4034 36.4175 5.56177 36.5726 5.76568 36.6854C5.9696 36.7982 6.20715 36.8546 6.47831 36.8546C6.75165 36.8546 6.9892 36.7982 7.19094 36.6854C7.39486 36.5726 7.55214 36.4175 7.66278 36.2201C7.77558 36.0226 7.83199 35.797 7.83199 35.5432V31.3358ZM14.5328 34.4271L13.2638 34.5052C13.2421 34.3967 13.1954 34.2991 13.1238 34.2123C13.0522 34.1234 12.9579 34.0529 12.8407 34.0008C12.7258 33.9466 12.588 33.9195 12.4275 33.9195C12.2127 33.9195 12.0316 33.965 11.8841 34.0561C11.7365 34.1451 11.6628 34.2644 11.6628 34.4141C11.6628 34.5334 11.7105 34.6343 11.806 34.7167C11.9014 34.7991 12.0652 34.8653 12.2973 34.9152L13.2019 35.0974C13.6879 35.1972 14.0501 35.3577 14.2888 35.579C14.5274 35.8003 14.6467 36.091 14.6467 36.4511C14.6467 36.7787 14.5502 37.0661 14.3571 37.3134C14.1662 37.5607 13.9037 37.7538 13.5696 37.8926C13.2377 38.0293 12.8548 38.0976 12.421 38.0976C11.7593 38.0976 11.2322 37.9599 10.8395 37.6844C10.449 37.4067 10.2202 37.0292 10.1529 36.552L11.5163 36.4804C11.5576 36.6821 11.6574 36.8361 11.8157 36.9424C11.9741 37.0466 12.1769 37.0986 12.4242 37.0986C12.6672 37.0986 12.8624 37.052 13.0099 36.9587C13.1596 36.8633 13.2356 36.7407 13.2377 36.591C13.2356 36.4652 13.1824 36.3621 13.0783 36.2819C12.9741 36.1994 12.8136 36.1365 12.5967 36.0931L11.7311 35.9207C11.243 35.8231 10.8796 35.6539 10.641 35.4131C10.4046 35.1723 10.2863 34.8653 10.2863 34.4922C10.2863 34.1711 10.3731 33.8945 10.5467 33.6624C10.7224 33.4303 10.9686 33.2513 11.2853 33.1255C11.6042 32.9997 11.9773 32.9367 12.4047 32.9367C13.036 32.9367 13.5328 33.0702 13.895 33.337C14.2595 33.6038 14.4721 33.9672 14.5328 34.4271ZM17.7974 38.0976C17.2833 38.0976 16.8407 37.9935 16.4698 37.7852C16.101 37.5748 15.8168 37.2776 15.6172 36.8936C15.4176 36.5075 15.3179 36.0508 15.3179 35.5237C15.3179 35.0096 15.4176 34.5583 15.6172 34.17C15.8168 33.7817 16.0977 33.4791 16.46 33.2621C16.8245 33.0452 17.2518 32.9367 17.7421 32.9367C18.0718 32.9367 18.3788 32.9899 18.663 33.0962C18.9493 33.2003 19.1988 33.3576 19.4114 33.568C19.6262 33.7785 19.7932 34.0431 19.9125 34.362C20.0318 34.6787 20.0915 35.0497 20.0915 35.4749V35.8556H15.871V34.9965H18.7866C18.7866 34.797 18.7433 34.6202 18.6565 34.4661C18.5697 34.3121 18.4493 34.1917 18.2953 34.1049C18.1434 34.016 17.9666 33.9715 17.7649 33.9715C17.5545 33.9715 17.3679 34.0203 17.2052 34.118C17.0447 34.2134 16.9188 34.3425 16.8277 34.5052C16.7366 34.6657 16.69 34.8447 16.6878 35.0421V35.8589C16.6878 36.1062 16.7334 36.3198 16.8245 36.4999C16.9177 36.68 17.049 36.8188 17.2182 36.9164C17.3874 37.014 17.5881 37.0628 17.8202 37.0628C17.9742 37.0628 18.1152 37.0411 18.2432 36.9978C18.3712 36.9544 18.4808 36.8893 18.5719 36.8025C18.663 36.7157 18.7324 36.6094 18.7801 36.4836L20.0622 36.5682C19.9971 36.8763 19.8637 37.1453 19.662 37.3752C19.4624 37.603 19.2042 37.7809 18.8875 37.9089C18.573 38.0347 18.2096 38.0976 17.7974 38.0976ZM24.5519 31.3358V38H23.143V31.3358H24.5519ZM25.6852 38V33.0018H27.0063V33.8837H27.0649C27.169 33.5908 27.3425 33.3598 27.5855 33.1906C27.8285 33.0214 28.1192 32.9367 28.4576 32.9367C28.8003 32.9367 29.0921 33.0224 29.3329 33.1938C29.5737 33.363 29.7342 33.593 29.8145 33.8837H29.8666C29.9685 33.5973 30.1529 33.3684 30.4198 33.1971C30.6888 33.0235 31.0066 32.9367 31.3732 32.9367C31.8396 32.9367 32.2181 33.0853 32.5088 33.3825C32.8017 33.6776 32.9481 34.0963 32.9481 34.6386V38H31.5652V34.9119C31.5652 34.6343 31.4914 34.426 31.3439 34.2872C31.1964 34.1483 31.012 34.0789 30.7907 34.0789C30.5391 34.0789 30.3427 34.1592 30.2017 34.3197C30.0607 34.4781 29.9902 34.6874 29.9902 34.9477V38H28.6463V34.8826C28.6463 34.6375 28.5758 34.4423 28.4348 34.2969C28.296 34.1516 28.1127 34.0789 27.8849 34.0789C27.7309 34.0789 27.592 34.118 27.4684 34.1961C27.3469 34.272 27.2503 34.3794 27.1788 34.5182C27.1072 34.6549 27.0714 34.8154 27.0714 34.9998V38H25.6852ZM34.0431 39.8743V33.0018H35.4098V33.8414H35.4716C35.5324 33.7069 35.6202 33.5702 35.7352 33.4314C35.8523 33.2903 36.0042 33.1732 36.1908 33.0799C36.3795 32.9845 36.6138 32.9367 36.8936 32.9367C37.2581 32.9367 37.5943 33.0322 37.9024 33.2231C38.2104 33.4118 38.4566 33.6971 38.641 34.0789C38.8254 34.4585 38.9176 34.9347 38.9176 35.5074C38.9176 36.0649 38.8276 36.5357 38.6475 36.9197C38.4697 37.3015 38.2267 37.5911 37.9186 37.7885C37.6128 37.9837 37.27 38.0814 36.8904 38.0814C36.6214 38.0814 36.3925 38.0369 36.2038 37.9479C36.0172 37.859 35.8643 37.7473 35.745 37.6128C35.6256 37.4761 35.5345 37.3383 35.4716 37.1995H35.4293V39.8743H34.0431ZM35.4 35.5009C35.4 35.7981 35.4413 36.0574 35.5237 36.2786C35.6061 36.4999 35.7254 36.6724 35.8816 36.796C36.0378 36.9175 36.2276 36.9782 36.4511 36.9782C36.6767 36.9782 36.8676 36.9164 37.0238 36.7928C37.18 36.6669 37.2982 36.4934 37.3785 36.2721C37.4609 36.0487 37.5021 35.7916 37.5021 35.5009C37.5021 35.2124 37.462 34.9586 37.3817 34.7395C37.3015 34.5204 37.1832 34.349 37.027 34.2253C36.8709 34.1017 36.6789 34.0399 36.4511 34.0399C36.2255 34.0399 36.0346 34.0995 35.8784 34.2188C35.7244 34.3381 35.6061 34.5074 35.5237 34.7265C35.4413 34.9456 35.4 35.2037 35.4 35.5009ZM42.1001 38.0976C41.5946 38.0976 41.1575 37.9902 40.7887 37.7755C40.4221 37.5585 40.139 37.257 39.9394 36.8709C39.7398 36.4825 39.64 36.0324 39.64 35.5204C39.64 35.0041 39.7398 34.5529 39.9394 34.1668C40.139 33.7785 40.4221 33.4769 40.7887 33.2621C41.1575 33.0452 41.5946 32.9367 42.1001 32.9367C42.6055 32.9367 43.0416 33.0452 43.4082 33.2621C43.777 33.4769 44.0612 33.7785 44.2607 34.1668C44.4603 34.5529 44.5601 35.0041 44.5601 35.5204C44.5601 36.0324 44.4603 36.4825 44.2607 36.8709C44.0612 37.257 43.777 37.5585 43.4082 37.7755C43.0416 37.9902 42.6055 38.0976 42.1001 38.0976ZM42.1066 37.0238C42.3365 37.0238 42.5285 36.9587 42.6825 36.8286C42.8366 36.6962 42.9526 36.5162 43.0307 36.2884C43.111 36.0606 43.1511 35.8014 43.1511 35.5107C43.1511 35.22 43.111 34.9607 43.0307 34.733C42.9526 34.5052 42.8366 34.3251 42.6825 34.1928C42.5285 34.0605 42.3365 33.9943 42.1066 33.9943C41.8744 33.9943 41.6792 34.0605 41.5208 34.1928C41.3647 34.3251 41.2464 34.5052 41.1662 34.733C41.0881 34.9607 41.049 35.22 41.049 35.5107C41.049 35.8014 41.0881 36.0606 41.1662 36.2884C41.2464 36.5162 41.3647 36.6962 41.5208 36.8286C41.6792 36.9587 41.8744 37.0238 42.1066 37.0238ZM45.4615 38V33.0018H46.8054V33.8739H46.8574C46.9485 33.5637 47.1015 33.3294 47.3163 33.171C47.531 33.0105 47.7783 32.9302 48.0582 32.9302C48.1276 32.9302 48.2024 32.9346 48.2827 32.9433C48.363 32.9519 48.4335 32.9639 48.4942 32.979V34.2091C48.4291 34.1895 48.3391 34.1722 48.2241 34.157C48.1091 34.1418 48.0039 34.1342 47.9085 34.1342C47.7046 34.1342 47.5223 34.1787 47.3618 34.2676C47.2034 34.3544 47.0776 34.4759 46.9843 34.6321C46.8932 34.7883 46.8477 34.9683 46.8477 35.1723V38H45.4615ZM52.12 33.0018V34.0431H49.11V33.0018H52.12ZM49.7934 31.8043H51.1796V36.4641C51.1796 36.5921 51.1991 36.6919 51.2382 36.7635C51.2772 36.8329 51.3314 36.8817 51.4009 36.9099C51.4725 36.9381 51.5549 36.9522 51.6482 36.9522C51.7132 36.9522 51.7783 36.9468 51.8434 36.9359C51.9085 36.9229 51.9584 36.9132 51.9931 36.9066L52.2111 37.9382C52.1417 37.9599 52.0441 37.9848 51.9183 38.013C51.7924 38.0434 51.6395 38.0618 51.4594 38.0683C51.1254 38.0814 50.8325 38.0369 50.5808 37.9349C50.3314 37.833 50.1372 37.6746 49.9984 37.4598C49.8595 37.2451 49.7912 36.9739 49.7934 36.6463V31.8043ZM56.3185 38H54.8086L57.1092 31.3358H58.925L61.2223 38H59.7124L58.0431 32.8586H57.9911L56.3185 38ZM56.2241 35.3805H59.7905V36.4804H56.2241V35.3805ZM66.0407 34.4271L64.7716 34.5052C64.7499 34.3967 64.7033 34.2991 64.6317 34.2123C64.5601 34.1234 64.4657 34.0529 64.3486 34.0008C64.2336 33.9466 64.0959 33.9195 63.9353 33.9195C63.7206 33.9195 63.5394 33.965 63.3919 34.0561C63.2444 34.1451 63.1706 34.2644 63.1706 34.4141C63.1706 34.5334 63.2184 34.6343 63.3138 34.7167C63.4093 34.7991 63.5731 34.8653 63.8052 34.9152L64.7098 35.0974C65.1957 35.1972 65.558 35.3577 65.7966 35.579C66.0353 35.8003 66.1546 36.091 66.1546 36.4511C66.1546 36.7787 66.058 37.0661 65.865 37.3134C65.6741 37.5607 65.4116 37.7538 65.0775 37.8926C64.7456 38.0293 64.3627 38.0976 63.9288 38.0976C63.2672 38.0976 62.74 37.9599 62.3474 37.6844C61.9569 37.4067 61.728 37.0292 61.6608 36.552L63.0242 36.4804C63.0654 36.6821 63.1652 36.8361 63.3236 36.9424C63.4819 37.0466 63.6848 37.0986 63.9321 37.0986C64.1751 37.0986 64.3703 37.052 64.5178 36.9587C64.6675 36.8633 64.7434 36.7407 64.7456 36.591C64.7434 36.4652 64.6903 36.3621 64.5861 36.2819C64.482 36.1994 64.3215 36.1365 64.1046 36.0931L63.239 35.9207C62.7509 35.8231 62.3875 35.6539 62.1489 35.4131C61.9124 35.1723 61.7942 34.8653 61.7942 34.4922C61.7942 34.1711 61.881 33.8945 62.0545 33.6624C62.2302 33.4303 62.4765 33.2513 62.7932 33.1255C63.1121 32.9997 63.4852 32.9367 63.9126 32.9367C64.5438 32.9367 65.0406 33.0702 65.4029 33.337C65.7674 33.6038 65.98 33.9672 66.0407 34.4271ZM70.5833 31.3358V38H69.1743V31.3358H70.5833ZM73.1027 35.1104V38H71.7165V33.0018H73.0376V33.8837H73.0962C73.2069 33.593 73.3923 33.363 73.6527 33.1938C73.913 33.0224 74.2286 32.9367 74.5996 32.9367C74.9467 32.9367 75.2493 33.0127 75.5074 33.1645C75.7656 33.3164 75.9663 33.5333 76.1094 33.8153C76.2526 34.0952 76.3242 34.4293 76.3242 34.8176V38H74.938V35.0649C74.9402 34.759 74.8621 34.5204 74.7037 34.349C74.5453 34.1754 74.3273 34.0887 74.0496 34.0887C73.8631 34.0887 73.6982 34.1288 73.555 34.2091C73.414 34.2893 73.3034 34.4065 73.2231 34.5605C73.145 34.7124 73.1049 34.8957 73.1027 35.1104ZM24.5747 49V42.3358H27.204C27.7094 42.3358 28.14 42.4323 28.4958 42.6254C28.8516 42.8163 29.1228 43.082 29.3093 43.4226C29.4981 43.761 29.5924 44.1515 29.5924 44.5941C29.5924 45.0366 29.497 45.4271 29.3061 45.7655C29.1152 46.1039 28.8386 46.3675 28.4763 46.5562C28.1162 46.745 27.6801 46.8393 27.1682 46.8393H25.4924V45.7102H26.9404C27.2116 45.7102 27.435 45.6635 27.6107 45.5703C27.7886 45.4748 27.9209 45.3436 28.0077 45.1765C28.0967 45.0073 28.1411 44.8132 28.1411 44.5941C28.1411 44.3728 28.0967 44.1797 28.0077 44.0148C27.9209 43.8478 27.7886 43.7187 27.6107 43.6276C27.4328 43.5343 27.2072 43.4877 26.9339 43.4877H25.9837V49H24.5747ZM31.3374 50.8743C31.1617 50.8743 30.9968 50.8602 30.8428 50.832C30.6909 50.806 30.5651 50.7724 30.4653 50.7311L30.7777 49.6964C30.9404 49.7463 31.0868 49.7734 31.217 49.7777C31.3493 49.782 31.4632 49.7517 31.5587 49.6866C31.6563 49.6215 31.7355 49.5109 31.7962 49.3547L31.8776 49.1432L30.0846 44.0018H31.5424L32.5772 47.6724H32.6292L33.6738 44.0018H35.1413L33.1987 49.5402C33.1054 49.8092 32.9785 50.0435 32.818 50.243C32.6596 50.4448 32.4589 50.5999 32.216 50.7084C31.973 50.819 31.6802 50.8743 31.3374 50.8743ZM38.5093 44.0018V45.0431H35.4993V44.0018H38.5093ZM36.1826 42.8043H37.5688V47.4641C37.5688 47.5921 37.5884 47.6919 37.6274 47.7635C37.6665 47.8329 37.7207 47.8817 37.7901 47.9099C37.8617 47.9381 37.9441 47.9522 38.0374 47.9522C38.1025 47.9522 38.1676 47.9468 38.2327 47.9359C38.2977 47.9229 38.3476 47.9132 38.3823 47.9066L38.6004 48.9382C38.5309 48.9599 38.4333 48.9848 38.3075 49.013C38.1817 49.0434 38.0287 49.0618 37.8487 49.0683C37.5146 49.0814 37.2217 49.0369 36.9701 48.9349C36.7206 48.833 36.5265 48.6746 36.3876 48.4598C36.2488 48.2451 36.1805 47.9739 36.1826 47.6463V42.8043ZM40.9058 46.1104V49H39.5196V42.3358H40.8668V44.8837H40.9254C41.0382 44.5886 41.2204 44.3576 41.472 44.1906C41.7237 44.0214 42.0393 43.9367 42.419 43.9367C42.7661 43.9367 43.0687 44.0127 43.3268 44.1645C43.5871 44.3142 43.7889 44.5301 43.9321 44.8121C44.0774 45.0919 44.149 45.4271 44.1468 45.8176V49H42.7606V46.0649C42.7628 45.7568 42.6847 45.5171 42.5263 45.3457C42.3701 45.1744 42.151 45.0887 41.869 45.0887C41.6803 45.0887 41.5133 45.1288 41.3679 45.2091C41.2247 45.2893 41.1119 45.4065 41.0295 45.5605C40.9492 45.7124 40.908 45.8957 40.9058 46.1104ZM47.496 49.0976C46.9906 49.0976 46.5535 48.9902 46.1847 48.7755C45.818 48.5585 45.535 48.257 45.3354 47.8709C45.1358 47.4825 45.036 47.0324 45.036 46.5204C45.036 46.0041 45.1358 45.5529 45.3354 45.1668C45.535 44.7785 45.818 44.4769 46.1847 44.2621C46.5535 44.0452 46.9906 43.9367 47.496 43.9367C48.0015 43.9367 48.4375 44.0452 48.8042 44.2621C49.1729 44.4769 49.4571 44.7785 49.6567 45.1668C49.8563 45.5529 49.9561 46.0041 49.9561 46.5204C49.9561 47.0324 49.8563 47.4825 49.6567 47.8709C49.4571 48.257 49.1729 48.5585 48.8042 48.7755C48.4375 48.9902 48.0015 49.0976 47.496 49.0976ZM47.5025 48.0238C47.7325 48.0238 47.9245 47.9587 48.0785 47.8286C48.2325 47.6962 48.3486 47.5162 48.4267 47.2884C48.507 47.0606 48.5471 46.8014 48.5471 46.5107C48.5471 46.22 48.507 45.9607 48.4267 45.733C48.3486 45.5052 48.2325 45.3251 48.0785 45.1928C47.9245 45.0605 47.7325 44.9943 47.5025 44.9943C47.2704 44.9943 47.0752 45.0605 46.9168 45.1928C46.7606 45.3251 46.6424 45.5052 46.5621 45.733C46.484 45.9607 46.445 46.22 46.445 46.5107C46.445 46.8014 46.484 47.0606 46.5621 47.2884C46.6424 47.5162 46.7606 47.6962 46.9168 47.8286C47.0752 47.9587 47.2704 48.0238 47.5025 48.0238ZM52.2437 46.1104V49H50.8574V44.0018H52.1786V44.8837H52.2371C52.3478 44.593 52.5333 44.363 52.7936 44.1938C53.0539 44.0224 53.3695 43.9367 53.7405 43.9367C54.0876 43.9367 54.3902 44.0127 54.6484 44.1645C54.9065 44.3164 55.1072 44.5333 55.2504 44.8153C55.3935 45.0952 55.4651 45.4293 55.4651 45.8176V49H54.0789V46.0649C54.0811 45.759 54.003 45.5204 53.8446 45.349C53.6863 45.1754 53.4683 45.0887 53.1906 45.0887C53.004 45.0887 52.8391 45.1288 52.696 45.2091C52.555 45.2893 52.4443 45.4065 52.3641 45.5605C52.286 45.7124 52.2458 45.8957 52.2437 46.1104Z" fill="#FF0000"/>
</svg>
